<?xml version="1.0" encoding="UTF-8"?>
<svg width="243px" height="58px" viewBox="0 0 243 58" version="1.1" xmlns="http://www.w3.org/2000/svg" xmlns:xlink="http://www.w3.org/1999/xlink">
    <!-- Generator: Sketch 53 (72520) - https://sketchapp.com -->
    <title>Originate.</title>
    <desc>Created with Sketch.</desc>
    <g id="Page-1" stroke="none" stroke-width="1" fill="none" fill-rule="evenodd">
        <g id="Artboard" transform="translate(-238.000000, -318.000000)" fill="#2C260E" fill-rule="nonzero">
            <path d="M260.872,360.064 C265.053354,360.064 268.210656,358.410683 270.344,355.104 C272.477344,351.797317 273.544,346.752034 273.544,339.968 C273.544,333.610635 272.381345,328.682684 270.056,325.184 C267.730655,321.685316 264.541354,319.936 260.488,319.936 C256.263979,319.936 253.074677,321.599983 250.92,324.928 C248.765323,328.256017 247.688,333.290633 247.688,340.032 C247.688,346.474699 248.850655,351.423983 251.176,354.88 C253.501345,358.336017 256.733313,360.064 260.872,360.064 Z M260.296,360.768 C257.181318,360.768 254.301347,360.266672 251.656,359.264 C249.010653,358.261328 246.72801,356.853342 244.808,355.04 C242.88799,353.226658 241.394672,351.050679 240.328,348.512 C239.261328,345.973321 238.728,343.146682 238.728,340.032 C238.728,337.258653 239.314661,334.613346 240.488,332.096 C241.661339,329.578654 243.261323,327.36001 245.288,325.44 C247.314677,323.51999 249.682653,321.994672 252.392,320.864 C255.101347,319.733328 257.970652,319.168 261,319.168 C264.114682,319.168 266.994653,319.679995 269.64,320.704 C272.285347,321.728005 274.56799,323.157324 276.488,324.992 C278.40801,326.826676 279.901328,329.023987 280.968,331.584 C282.034672,334.144013 282.568,336.981318 282.568,340.096 C282.568,342.82668 281.981339,345.450654 280.808,347.968 C279.634661,350.485346 278.034677,352.682657 276.008,354.56 C273.981323,356.437343 271.624013,357.941328 268.936,359.072 C266.247987,360.202672 263.368015,360.768 260.296,360.768 Z M283.842435,359.616 L284.802435,359.552 C285.783773,359.466666 286.477099,359.370667 286.882435,359.264 C287.28777,359.157333 287.490435,358.912002 287.490435,358.528 L287.490435,340.608 C287.490435,339.626662 287.458435,338.82667 287.394435,338.208 C287.330434,337.58933 287.202436,337.109335 287.010435,336.768 C286.818434,336.426665 286.55177,336.170668 286.210435,336 C285.8691,335.829332 285.421104,335.680001 284.866435,335.552 L283.394435,335.232 L283.458435,334.976 L294.850435,331.904 L294.658435,342.016 L294.786435,342.016 C295.725106,338.687983 296.887761,336.149342 298.274435,334.4 C299.661108,332.650658 301.378424,331.776 303.426435,331.776 C304.706441,331.776 305.79443,332.159996 306.690435,332.928 C307.586439,333.696004 308.034435,334.741327 308.034435,336.064 C308.034435,337.045338 307.671772,337.951996 306.946435,338.784 C306.221098,339.616004 305.28244,340.032 304.130435,340.032 C302.935762,340.032 301.954439,339.637337 301.186435,338.848 C300.418431,338.058663 299.927769,337.04534 299.714435,335.808 C298.605096,335.978668 297.687772,336.757326 296.962435,338.144 C296.237098,339.530674 295.490439,341.674652 294.722435,344.576 L294.722435,358.592 C294.722435,358.848001 294.925099,359.050666 295.330435,359.2 C295.73577,359.349334 296.663761,359.466666 298.114435,359.552 L299.522435,359.616 L299.714435,360 L283.650435,360 L283.842435,359.616 Z M314.748869,327.488 C313.255529,327.488 312.124873,327.008005 311.356869,326.048 C310.588866,325.087995 310.204869,324.096005 310.204869,323.072 C310.204869,322.047995 310.588866,321.056005 311.356869,320.096 C312.124873,319.135995 313.255529,318.656 314.748869,318.656 C316.24221,318.656 317.372866,319.135995 318.140869,320.096 C318.908873,321.056005 319.292869,322.047995 319.292869,323.072 C319.292869,324.096005 318.908873,325.087995 318.140869,326.048 C317.372866,327.008005 316.24221,327.488 314.748869,327.488 Z M307.900869,359.616 L308.860869,359.552 C309.842208,359.466666 310.535534,359.370667 310.940869,359.264 C311.346205,359.157333 311.548869,358.912002 311.548869,358.528 L311.548869,340.608 C311.548869,339.626662 311.51687,338.82667 311.452869,338.208 C311.388869,337.58933 311.26087,337.109335 311.068869,336.768 C310.876868,336.426665 310.610204,336.170668 310.268869,336 C309.927534,335.829332 309.479539,335.680001 308.924869,335.552 L307.452869,335.232 L307.516869,334.976 L318.780869,331.904 L318.780869,358.656 C318.780869,358.912001 318.962201,359.093333 319.324869,359.2 C319.687538,359.306667 320.594195,359.423999 322.044869,359.552 L322.748869,359.616 L322.940869,360 L307.708869,360 L307.900869,359.616 Z M335.671304,349.376 C337.164645,349.376 338.305967,348.69334 339.095304,347.328 C339.884641,345.96266 340.279304,343.936013 340.279304,341.248 C340.279304,338.602653 339.927308,336.469341 339.223304,334.848 C338.519301,333.226659 337.292646,332.416 335.543304,332.416 C332.641956,332.416 331.191304,335.210639 331.191304,340.8 C331.191304,346.517362 332.684622,349.376 335.671304,349.376 Z M336.695304,373.952 C338.103311,373.952 339.372632,373.760002 340.503304,373.376 C341.633976,372.991998 342.6153,372.469337 343.447304,371.808 C344.279308,371.146663 344.919302,370.378671 345.367304,369.504 C345.815306,368.629329 346.039304,367.680005 346.039304,366.656 C346.039304,364.863991 345.367311,363.562671 344.023304,362.752 C342.679297,361.941329 340.513986,361.493334 337.527304,361.408 C336.673966,361.365333 335.628644,361.386666 334.391304,361.472 C333.153965,361.557334 332.001976,361.663999 330.935304,361.792 C329.783298,362.261336 328.90864,362.997328 328.311304,364 C327.713968,365.002672 327.415304,366.12266 327.415304,367.36 C327.415304,369.28001 328.268629,370.85866 329.975304,372.096 C331.681979,373.33334 333.921957,373.952 336.695304,373.952 Z M333.303304,375.104 C325.751266,375.104 321.975304,372.992021 321.975304,368.768 C321.975304,367.914662 322.220635,367.125337 322.711304,366.4 C323.201973,365.674663 323.841967,365.024003 324.631304,364.448 C325.420641,363.871997 326.284633,363.360002 327.223304,362.912 C328.161975,362.463998 329.0793,362.069335 329.975304,361.728 L329.975304,361.664 C327.84196,361.535999 326.060645,360.928005 324.631304,359.84 C323.201964,358.751995 322.487304,357.461341 322.487304,355.968 C322.487304,355.071996 322.711302,354.261337 323.159304,353.536 C323.607306,352.810663 324.183301,352.160003 324.887304,351.584 C325.591308,351.007997 326.3913,350.517335 327.287304,350.112 C328.183309,349.706665 329.0793,349.397334 329.975304,349.184 L329.975304,349.12 C328.268629,348.522664 326.849976,347.562673 325.719304,346.24 C324.588632,344.917327 324.023304,343.253343 324.023304,341.248 C324.023304,339.967994 324.332634,338.752006 324.951304,337.6 C325.569974,336.447994 326.401965,335.434671 327.447304,334.56 C328.492643,333.685329 329.719297,333.002669 331.127304,332.512 C332.535311,332.021331 334.028629,331.776 335.607304,331.776 C337.100645,331.776 338.497964,331.978665 339.799304,332.384 C341.100644,332.789335 342.241966,333.311997 343.223304,333.952 L351.607304,332.48 L350.967304,335.744 L344.567304,334.848 L344.503304,335.04 C345.356642,335.765337 346.017968,336.629328 346.487304,337.632 C346.95664,338.634672 347.191304,339.690661 347.191304,340.8 C347.191304,342.080006 346.89264,343.274661 346.295304,344.384 C345.697968,345.493339 344.876643,346.463996 343.831304,347.296 C342.785965,348.128004 341.537978,348.778664 340.087304,349.248 C338.63663,349.717336 337.079312,349.952 335.415304,349.952 C334.604633,349.952 333.804641,349.898667 333.015304,349.792 C332.225967,349.685333 331.575307,349.589334 331.063304,349.504 C329.953965,349.717334 329.057974,350.111997 328.375304,350.688 C327.692634,351.264003 327.351304,351.957329 327.351304,352.768 C327.351304,353.621338 327.788633,354.229332 328.663304,354.592 C329.537975,354.954668 330.871295,355.136 332.663304,355.136 C333.13264,355.136 333.708634,355.125333 334.391304,355.104 C335.073974,355.082667 335.7993,355.061333 336.567304,355.04 L338.871304,354.976 C339.639308,354.954667 340.300635,354.944 340.855304,354.944 C343.884653,354.944 346.231296,355.605327 347.895304,356.928 C349.559312,358.250673 350.391304,360.106655 350.391304,362.496 C350.391304,364.288009 349.975308,365.951992 349.143304,367.488 C348.3113,369.024008 347.137978,370.357328 345.623304,371.488 C344.10863,372.618672 342.305981,373.503997 340.215304,374.144 C338.124627,374.784003 335.82065,375.104 333.303304,375.104 Z M357.489739,327.488 C355.996398,327.488 354.865743,327.008005 354.097739,326.048 C353.329735,325.087995 352.945739,324.096005 352.945739,323.072 C352.945739,322.047995 353.329735,321.056005 354.097739,320.096 C354.865743,319.135995 355.996398,318.656 357.489739,318.656 C358.98308,318.656 360.113735,319.135995 360.881739,320.096 C361.649743,321.056005 362.033739,322.047995 362.033739,323.072 C362.033739,324.096005 361.649743,325.087995 360.881739,326.048 C360.113735,327.008005 358.98308,327.488 357.489739,327.488 Z M350.641739,359.616 L351.601739,359.552 C352.583077,359.466666 353.276403,359.370667 353.681739,359.264 C354.087074,359.157333 354.289739,358.912002 354.289739,358.528 L354.289739,340.608 C354.289739,339.626662 354.257739,338.82667 354.193739,338.208 C354.129738,337.58933 354.00174,337.109335 353.809739,336.768 C353.617738,336.426665 353.351074,336.170668 353.009739,336 C352.668404,335.829332 352.220408,335.680001 351.665739,335.552 L350.193739,335.232 L350.257739,334.976 L361.521739,331.904 L361.521739,358.656 C361.521739,358.912001 361.70307,359.093333 362.065739,359.2 C362.428407,359.306667 363.335065,359.423999 364.785739,359.552 L365.489739,359.616 L365.681739,360 L350.449739,360 L350.641739,359.616 Z M365.804173,359.616 L366.764173,359.552 C367.745512,359.466666 368.438838,359.370667 368.844173,359.264 C369.249509,359.157333 369.452173,358.912002 369.452173,358.528 L369.452173,340.608 C369.452173,339.626662 369.420174,338.82667 369.356173,338.208 C369.292173,337.58933 369.164174,337.109335 368.972173,336.768 C368.780172,336.426665 368.513508,336.170668 368.172173,336 C367.830838,335.829332 367.382843,335.680001 366.828173,335.552 L365.356173,335.232 L365.420173,334.976 L376.812173,331.904 L376.620173,337.408 L376.748173,337.472 C377.430843,336.874664 378.188169,336.245337 379.020173,335.584 C379.852178,334.922663 380.726835,334.304003 381.644173,333.728 C382.561511,333.151997 383.542835,332.682668 384.588173,332.32 C385.633512,331.957332 386.689501,331.776 387.756173,331.776 C389.761517,331.776 391.446833,332.45866 392.812173,333.824 C393.53751,334.549337 394.060172,335.541327 394.380173,336.8 C394.700175,338.058673 394.860173,339.413326 394.860173,340.864 L394.860173,358.592 C394.860173,358.677334 394.881507,358.762666 394.924173,358.848 C394.96684,358.933334 395.094839,359.018666 395.308173,359.104 C395.521508,359.189334 395.852171,359.264 396.300173,359.328 C396.748176,359.392 397.35617,359.466666 398.124173,359.552 L398.828173,359.616 L399.020173,360 L383.916173,360 L384.108173,359.616 L385.260173,359.552 C386.369512,359.466666 387.041506,359.338668 387.276173,359.168 C387.510841,358.997332 387.628173,358.784001 387.628173,358.528 L387.628173,341.76 C387.628173,339.754657 387.158845,338.346671 386.220173,337.536 C385.281502,336.725329 383.980182,336.32 382.316173,336.32 C381.078834,336.32 380.012178,336.511998 379.116173,336.896 C378.220169,337.280002 377.40951,337.749331 376.684173,338.304 L376.684173,358.656 C376.684173,358.912001 376.844172,359.103999 377.164173,359.232 C377.484175,359.360001 378.262834,359.466666 379.500173,359.552 L380.460173,359.616 L380.588173,360 L365.612173,360 L365.804173,359.616 Z M409.766608,356.544 C411.259949,356.544 412.689268,355.840007 414.054608,354.432 L414.502608,344.64 C412.795933,345.024002 411.387947,345.471997 410.278608,345.984 C409.169269,346.496003 408.283945,347.050664 407.622608,347.648 C406.961271,348.245336 406.502609,348.906663 406.246608,349.632 C405.990607,350.357337 405.862608,351.125329 405.862608,351.936 C405.862608,353.30134 406.235938,354.410662 406.982608,355.264 C407.729278,356.117338 408.657269,356.544 409.766608,356.544 Z M419.366608,360.704 C417.873267,360.704 416.689279,360.224005 415.814608,359.264 C414.939937,358.303995 414.395942,356.949342 414.182608,355.2 L414.118608,355.136 C412.753268,356.629341 411.366615,357.919995 409.958608,359.008 C408.550601,360.096005 407.014616,360.64 405.350608,360.64 C404.411937,360.64 403.547945,360.469335 402.758608,360.128 C401.969271,359.786665 401.275944,359.338669 400.678608,358.784 C400.081272,358.229331 399.611943,357.57867 399.270608,356.832 C398.929273,356.08533 398.758608,355.328004 398.758608,354.56 C398.758608,353.450661 399.003939,352.416005 399.494608,351.456 C399.985277,350.495995 400.827935,349.578671 402.022608,348.704 C403.217281,347.829329 404.827931,347.008004 406.854608,346.24 C408.881285,345.471996 411.40926,344.704004 414.438608,343.936 L414.502608,341.76 C414.587942,339.071987 414.054614,337.002674 412.902608,335.552 C411.750602,334.101326 410.150618,333.376 408.102608,333.376 C406.907935,333.376 405.947945,333.567998 405.222608,333.952 C404.497271,334.336002 404.134608,334.698665 404.134608,335.04 C404.134608,335.168001 404.230607,335.359999 404.422608,335.616 L405.094608,336.512 C405.350609,336.853335 405.574607,337.215998 405.766608,337.6 C405.958609,337.984002 406.054608,338.389331 406.054608,338.816 C406.054608,339.754671 405.713278,340.543997 405.030608,341.184 C404.347938,341.824003 403.451947,342.144 402.342608,342.144 C401.36127,342.144 400.518612,341.877336 399.814608,341.344 C399.110605,340.810664 398.758608,340.053338 398.758608,339.072 C398.758608,338.047995 399.227937,337.088004 400.166608,336.192 C401.105279,335.295996 402.278601,334.517337 403.686608,333.856 C405.094615,333.194663 406.609267,332.672002 408.230608,332.288 C409.85195,331.903998 411.323935,331.712 412.646608,331.712 C416.145292,331.712 418.587934,332.458659 419.974608,333.952 C421.361282,335.445341 421.969276,338.005315 421.798608,341.632 L421.222608,353.6 C421.137274,354.794673 421.329272,355.679997 421.798608,356.256 C422.267944,356.832003 422.865271,357.12 423.590608,357.12 C424.102611,357.12 424.582606,356.928002 425.030608,356.544 C425.47861,356.159998 425.894606,355.733336 426.278608,355.264 L426.662608,355.456 C426.321273,355.882669 425.894611,356.40533 425.382608,357.024 C424.870606,357.64267 424.305278,358.218664 423.686608,358.752 C423.067938,359.285336 422.395945,359.743998 421.670608,360.128 C420.945271,360.512002 420.177279,360.704 419.366608,360.704 Z M436.833043,360.704 C434.27303,360.704 432.374382,360.064006 431.137043,358.784 C429.899703,357.503994 429.302376,355.49868 429.345043,352.768 L429.665043,336 L424.481043,335.936 L425.761043,333.824 L430.305043,330.56 L436.513043,325.888 L436.769043,325.952 L436.705043,332.608 L446.305043,332.672 L445.217043,335.744 L436.641043,335.744 L436.321043,351.936 C436.278376,353.728009 436.630372,355.050662 437.377043,355.904 C438.123713,356.757338 439.329034,357.184 440.993043,357.184 C442.230382,357.184 443.275705,356.992002 444.129043,356.608 C444.98238,356.223998 445.707706,355.754669 446.305043,355.2 L446.561043,355.456 C445.110369,356.949341 443.606384,358.197328 442.049043,359.2 C440.491702,360.202672 438.753052,360.704 436.833043,360.704 Z M463.835477,340.864 C463.835477,339.882662 463.760812,338.890672 463.611477,337.888 C463.462143,336.885328 463.216812,335.978671 462.875477,335.168 C462.534142,334.357329 462.07548,333.696003 461.499477,333.184 C460.923475,332.671997 460.187482,332.416 459.291477,332.416 C457.840804,332.416 456.55015,333.215992 455.419477,334.816 C454.288805,336.416008 453.552812,338.453321 453.211477,340.928 L463.835477,340.864 Z M458.523477,360.96 C456.603468,360.96 454.832819,360.597337 453.211477,359.872 C451.590136,359.146663 450.18215,358.154673 448.987477,356.896 C447.792805,355.637327 446.864814,354.144009 446.203477,352.416 C445.542141,350.687991 445.211477,348.842676 445.211477,346.88 C445.211477,344.746656 445.584807,342.752009 446.331477,340.896 C447.078148,339.039991 448.112804,337.42934 449.435477,336.064 C450.758151,334.69866 452.326135,333.621337 454.139477,332.832 C455.95282,332.042663 457.9048,331.648 459.995477,331.648 C461.830153,331.648 463.430137,331.903997 464.795477,332.416 C466.160818,332.928003 467.30214,333.610662 468.219477,334.464 C469.136815,335.317338 469.819475,336.277328 470.267477,337.344 C470.71548,338.410672 470.939477,339.519994 470.939477,340.672 C470.939477,340.885334 470.928811,341.066666 470.907477,341.216 C470.886144,341.365334 470.854144,341.546666 470.811477,341.76 C467.824796,341.76 465.094156,341.738667 462.619477,341.696 C461.552805,341.696 460.496816,341.685333 459.451477,341.664 C458.406139,341.642667 457.456815,341.621333 456.603477,341.6 C455.75014,341.578667 455.003481,341.568 454.363477,341.568 L453.083477,341.568 C452.998144,341.994669 452.955477,342.506664 452.955477,343.104 L452.955477,344.64 C452.955477,346.432009 453.190142,348.053326 453.659477,349.504 C454.128813,350.954674 454.79014,352.191995 455.643477,353.216 C456.496815,354.240005 457.520805,355.039997 458.715477,355.616 C459.91015,356.192003 461.232804,356.48 462.683477,356.48 C464.518153,356.48 466.107471,356.10667 467.451477,355.36 C468.795484,354.61333 469.958139,353.322676 470.939477,351.488 L471.387477,351.68 C470.022137,354.624015 468.304821,356.906659 466.235477,358.528 C464.166134,360.149341 461.595493,360.96 458.523477,360.96 Z M476.373912,360.704 C475.136573,360.704 474.101916,360.277338 473.269912,359.424 C472.437908,358.570662 472.021912,357.546673 472.021912,356.352 C472.021912,355.242661 472.437908,354.272004 473.269912,353.44 C474.101916,352.607996 475.136573,352.192 476.373912,352.192 C477.568585,352.192 478.581908,352.618662 479.413912,353.472 C480.245916,354.325338 480.661912,355.285328 480.661912,356.352 C480.661912,357.546673 480.245916,358.570662 479.413912,359.424 C478.581908,360.277338 477.568585,360.704 476.373912,360.704 Z" id="Originate."></path>
        </g>
    </g>
</svg>