<?xml version="1.0" encoding="UTF-8"?>
<svg width="415px" height="100px" viewBox="0 0 415 100" version="1.1" xmlns="http://www.w3.org/2000/svg" xmlns:xlink="http://www.w3.org/1999/xlink">
    <!-- Generator: Sketch 53 (72520) - https://sketchapp.com -->
    <title>Originate.</title>
    <desc>Created with Sketch.</desc>
    <g id="Page-1" stroke="none" stroke-width="1" fill="none" fill-rule="evenodd">
        <g id="Artboard" transform="translate(-326.000000, -144.000000)" fill="#000000" fill-rule="nonzero">
            <path d="M361.88,212.872 C371,212.872 376.856,202.504 376.856,186.856 C376.856,171.016 370.232,157.384 359.576,157.384 C350.36,157.384 344.792,167.656 344.792,183.208 C344.792,200.2 351.992,212.872 361.88,212.872 Z M360.92,151.336 C381.176,151.336 394.904,164.392 394.904,184.168 C394.904,205.384 378.968,219.112 360.44,219.112 C341.048,219.112 326.744,206.44 326.744,186.184 C326.744,164.68 342.392,151.336 360.92,151.336 Z M395.678,217 L395.678,212.104 L402.206,210.76 L402.206,179.08 L395.678,177.832 L395.678,173.32 L413.534,168.136 L414.11,168.136 L416.894,178.12 L417.086,178.12 L418.334,176.2 C420.638,172.456 423.998,168.136 429.182,168.136 C433.982,168.136 436.67,171.4 436.67,175.528 C436.67,180.424 431.774,184.456 431.486,184.648 L420.158,179.272 L417.47,180.904 L417.47,210.76 L426.494,212.104 L426.494,217 L395.678,217 Z M433.892,217 L433.892,212.008 L440.324,210.76 L440.324,178.984 L433.988,177.544 L433.988,172.552 L455.684,168.136 L455.684,210.76 L461.732,212.008 L461.732,217 L433.892,217 Z M448.004,161.608 C442.628,161.608 439.172,157.768 439.172,153.16 C439.172,148.552 442.724,144.808 448.004,144.808 C453.284,144.808 456.74,148.552 456.74,153.16 C456.74,157.768 453.188,161.608 448.004,161.608 Z M511.85,177.256 L500.426,176.104 L500.234,176.392 C502.346,178.408 504.554,181.864 504.554,186.856 C504.554,195.88 495.914,203.656 483.146,203.656 C479.69,203.656 476.522,203.176 473.738,202.12 C472.874,203.08 471.818,204.808 471.818,206.248 C471.818,208.648 473.738,208.936 477.482,209.128 L493.61,209.8 C505.226,210.28 510.026,215.848 510.026,221.896 C510.026,232.84 495.434,243.208 478.922,243.208 C465.674,243.208 459.146,237.544 459.146,231.112 C459.146,225.832 464.714,221.992 469.034,220.552 L469.706,220.264 L469.706,219.976 L461.93,212.68 C462.698,209.128 465.674,203.656 469.418,200.008 C464.618,196.936 461.738,192.136 461.738,186.28 C461.738,175.432 471.626,168.328 483.242,168.328 C487.946,168.328 492.074,169.576 496.394,171.208 L511.85,169.288 L511.85,177.256 Z M484.49,198.376 C489.194,198.376 491.21,194.152 491.21,188.968 C491.21,180.04 486.794,173.512 481.994,173.512 C477.578,173.512 475.274,177.352 475.274,182.728 C475.274,191.56 479.69,198.376 484.49,198.376 Z M494.858,222.76 L473.45,221.896 C472.874,223.048 472.394,224.392 472.394,226.12 C472.394,231.208 478.442,234.952 486.314,234.952 C495.818,234.952 499.946,231.016 499.946,227.368 C499.946,224.776 497.93,223.144 494.858,222.76 Z M510.128001,217 L510.128001,212.008 L516.560001,210.76 L516.560001,178.984 L510.224001,177.544 L510.224001,172.552 L531.920001,168.136 L531.920001,210.76 L537.968001,212.008 L537.968001,217 L510.128001,217 Z M524.240001,161.608 C518.864001,161.608 515.408001,157.768 515.408001,153.16 C515.408001,148.552 518.960001,144.808 524.240001,144.808 C529.520001,144.808 532.976001,148.552 532.976001,153.16 C532.976001,157.768 529.424001,161.608 524.240001,161.608 Z M537.110001,217 L537.110001,212.104 L543.638001,210.76 L543.638001,179.08 L537.110001,177.736 L537.110001,173.32 L555.542001,168.04 L556.022001,168.04 L558.134001,176.488 L558.422001,176.488 C561.014001,173.512 566.678001,168.136 574.454001,168.136 C584.726001,168.136 590.102001,173.128 590.102001,184.264 L590.102001,210.76 L596.630001,212.104 L596.630001,217 L569.558001,217 L569.558001,212.008 L574.742001,210.76 L574.742001,188.2 C574.646001,181.192 571.862001,177.544 565.718001,177.64 C562.838001,177.736 560.342001,178.792 558.902001,179.656 L558.902001,210.76 L564.374001,212.104 L564.374001,217 L537.110001,217 Z M610.076001,218.248 C602.492001,218.248 596.252001,213.16 596.252001,205.288 C596.252001,197.224 602.492001,193.768 611.612001,191.656 L623.516001,188.872 L623.516001,185.416 C623.420001,178.984 621.212001,173.992 615.356001,173.992 C613.724001,173.992 611.324001,174.568 610.556001,174.952 L610.460001,185.32 C609.116001,185.896 606.620001,186.664 603.740001,186.664 C600.284001,186.664 597.980001,184.936 597.980001,181.576 C597.980001,175.72 608.924001,168.424 621.404001,168.424 C634.172001,168.424 638.876001,174.088 638.876001,185.416 L638.876001,207.208 C638.876001,210.472 639.836001,210.76 642.620001,210.76 L646.364001,210.76 L646.364001,214.6 C646.364001,214.6 638.876001,218.248 633.308001,218.248 C626.876001,218.248 624.860001,214.504 623.996001,209.608 L623.612001,209.608 C620.348001,213.832 617.276001,218.248 610.076001,218.248 Z M617.948001,209.32 C620.636001,209.32 622.556001,207.784 623.516001,206.632 L623.516001,193.576 L619.004001,194.824 C613.052001,196.552 611.228001,198.856 611.228001,202.216 C611.228001,206.728 614.396001,209.32 617.948001,209.32 Z M659.234001,218.344 C650.402001,218.344 647.426001,213.736 647.522001,206.152 L648.002001,175.816 L641.282001,175.816 L641.282001,170.92 L648.098001,168.712 L658.370001,155.464 L662.882001,155.464 L662.882001,169.96 L674.690001,169.96 L674.690001,176.392 L663.074001,176.392 L663.074001,202.408 C663.074001,208.648 666.914001,209.416 670.466001,209.416 C672.962001,209.416 675.074001,209.128 675.074001,209.128 L676.130001,213.928 C676.130001,213.928 668.258001,218.344 659.234001,218.344 Z M697.832001,218.44 C681.512001,218.44 674.408001,206.344 674.408001,195.208 C674.408001,177.832 688.040001,168.136 700.136001,168.136 C714.152001,168.136 720.104001,178.792 720.392001,191.944 L688.328001,191.944 C689.672001,202.888 696.872001,207.688 705.320001,207.688 C713.000001,207.688 718.376001,202.504 718.376001,202.504 L720.680001,205.096 C717.032001,209.8 711.464001,218.44 697.832001,218.44 Z M697.448001,174.088 C692.744001,174.088 688.712001,178.504 688.136001,186.28 L705.224001,186.28 C705.224001,180.04 703.400001,174.088 697.448001,174.088 Z M732.302001,218.248 C727.790001,218.248 723.950001,214.408 723.950001,209.896 C723.950001,205.288 727.790001,201.544 732.302001,201.544 C736.910001,201.544 740.750001,205.288 740.750001,209.896 C740.750001,214.408 736.910001,218.248 732.302001,218.248 Z" id="Originate."></path>
        </g>
    </g>
</svg>